<svg width="231" height="231" viewBox="0 0 231 231" fill="none" xmlns="http://www.w3.org/2000/svg">
<g clip-path="url(#clip0_93_282)">
<mask id="mask0_93_282" style="mask-type:alpha" maskUnits="userSpaceOnUse" x="4" y="4" width="223" height="223">
<circle cx="115.5" cy="115.5" r="91.1667" stroke="black" stroke-width="40"/>
</mask>
<g mask="url(#mask0_93_282)">
<g filter="url(#filter0_d_93_282)">
<path d="M34.8711 38.9678C22.6294 51.8615 13.448 67.688 8.48926 85.2832L115.499 115.501L34.8711 38.9678Z" fill="#E8E8E8"/>
</g>
<g filter="url(#filter1_d_93_282)">
<path d="M8.48963 85.2832C5.78203 94.891 4.33301 105.026 4.33301 115.501C4.33301 133.213 8.47574 149.957 15.8445 164.819L115.5 115.501L8.48963 85.2832Z" fill="#00FF0A" fill-opacity="0.67" shape-rendering="crispEdges"/>
</g>
<g filter="url(#filter2_d_93_282)">
<path d="M15.8442 164.818C34.0178 201.47 71.8161 226.667 115.499 226.667C120.221 226.668 124.937 226.372 129.621 225.779L115.499 115.501L15.8442 164.818Z" fill="#00D5AF" fill-opacity="0.76" shape-rendering="crispEdges"/>
</g>
<g filter="url(#filter3_d_93_282)">
<path d="M129.621 225.779C178.459 219.587 217.413 181.71 225.232 133.398L115.5 115.5L129.621 225.779Z" fill="#FAFF1A"/>
</g>
<g filter="url(#filter4_d_93_282)">
<path d="M225.232 133.398C226.189 127.48 226.669 121.495 226.668 115.5C226.668 61.507 188.174 16.5043 137.134 6.4375L115.501 115.5L225.232 133.398Z" fill="#FAFF1A"/>
</g>
<path d="M34.8721 38.9669L115.5 115.496L137.133 6.43324C130.008 5.03041 122.763 4.3257 115.5 4.32911C83.7615 4.33258 55.128 17.635 34.8721 38.9669Z" fill="#0E2DCF"/>
</g>
<path d="M224.373 134.492C224.921 134.562 225.422 134.175 225.492 133.627C225.562 133.079 225.175 132.578 224.627 132.508L224.373 134.492ZM211.829 131.881L211.66 132.867L211.681 132.87L211.703 132.873L211.829 131.881ZM224.627 132.508L211.956 130.889L211.703 132.873L224.373 134.492L224.627 132.508ZM211.999 130.896L185.669 126.371L185.331 128.342L211.66 132.867L211.999 130.896Z" fill="#FAFF1A"/>
<mask id="mask1_93_282" style="mask-type:alpha" maskUnits="userSpaceOnUse" x="-4" y="4" width="223" height="223">
<circle cx="107.667" cy="115.667" r="90.1667" stroke="black" stroke-width="42"/>
</mask>
<g mask="url(#mask1_93_282)">
</g>
<path d="M60.6278 111.561V110.545H67.7188V111.561H64.7457V120H63.6009V111.561H60.6278ZM71.1903 120.148C70.5502 120.148 69.9885 119.995 69.5053 119.691C69.0252 119.386 68.6497 118.96 68.3789 118.412C68.1112 117.864 67.9773 117.224 67.9773 116.491C67.9773 115.753 68.1112 115.108 68.3789 114.557C68.6497 114.006 69.0252 113.578 69.5053 113.274C69.9885 112.969 70.5502 112.817 71.1903 112.817C71.8305 112.817 72.3906 112.969 72.8707 113.274C73.3539 113.578 73.7294 114.006 73.9972 114.557C74.268 115.108 74.4034 115.753 74.4034 116.491C74.4034 117.224 74.268 117.864 73.9972 118.412C73.7294 118.96 73.3539 119.386 72.8707 119.691C72.3906 119.995 71.8305 120.148 71.1903 120.148ZM71.1903 119.169C71.6766 119.169 72.0767 119.044 72.3906 118.795C72.7045 118.546 72.9369 118.218 73.0877 117.812C73.2385 117.406 73.3139 116.965 73.3139 116.491C73.3139 116.018 73.2385 115.576 73.0877 115.167C72.9369 114.757 72.7045 114.426 72.3906 114.174C72.0767 113.922 71.6766 113.795 71.1903 113.795C70.7041 113.795 70.304 113.922 69.9901 114.174C69.6761 114.426 69.4438 114.757 69.293 115.167C69.1422 115.576 69.0668 116.018 69.0668 116.491C69.0668 116.965 69.1422 117.406 69.293 117.812C69.4438 118.218 69.6761 118.546 69.9901 118.795C70.304 119.044 70.7041 119.169 71.1903 119.169ZM77.0821 117.415L77.0637 116.067H77.2852L80.3875 112.909H81.7355L78.4301 116.251H78.3378L77.0821 117.415ZM76.0665 120V110.545H77.156V120H76.0665ZM80.5722 120L77.8023 116.491L78.5779 115.734L81.9571 120H80.5722ZM85.8188 120.148C85.1356 120.148 84.5462 119.997 84.0507 119.695C83.5583 119.391 83.1782 118.966 82.9104 118.421C82.6457 117.873 82.5134 117.236 82.5134 116.51C82.5134 115.784 82.6457 115.143 82.9104 114.589C83.1782 114.032 83.5506 113.598 84.0276 113.288C84.5077 112.974 85.0679 112.817 85.708 112.817C86.0773 112.817 86.442 112.878 86.8021 113.001C87.1622 113.125 87.49 113.325 87.7854 113.602C88.0809 113.875 88.3163 114.239 88.4917 114.691C88.6672 115.143 88.7549 115.701 88.7549 116.362V116.824H83.289V115.882H87.6469C87.6469 115.482 87.5669 115.125 87.4069 114.811C87.2499 114.497 87.0252 114.249 86.7329 114.068C86.4436 113.886 86.1019 113.795 85.708 113.795C85.2741 113.795 84.8986 113.903 84.5816 114.119C84.2677 114.331 84.0261 114.608 83.8568 114.95C83.6875 115.291 83.6029 115.657 83.6029 116.048V116.676C83.6029 117.212 83.6952 117.666 83.8799 118.038C84.0676 118.407 84.3277 118.689 84.6601 118.883C84.9925 119.074 85.3787 119.169 85.8188 119.169C86.105 119.169 86.3635 119.129 86.5944 119.049C86.8283 118.966 87.0299 118.843 87.1991 118.68C87.3684 118.513 87.4992 118.307 87.5915 118.061L88.6441 118.357C88.5333 118.714 88.3471 119.027 88.0855 119.298C87.8239 119.566 87.5007 119.775 87.116 119.926C86.7313 120.074 86.2989 120.148 85.8188 120.148ZM91.5017 115.734V120H90.4122V112.909H91.4648V114.017H91.5571C91.7233 113.657 91.9756 113.368 92.3142 113.149C92.6527 112.928 93.0898 112.817 93.6253 112.817C94.1054 112.817 94.5255 112.915 94.8856 113.112C95.2457 113.306 95.5257 113.602 95.7258 113.999C95.9258 114.393 96.0258 114.891 96.0258 115.494V120H94.9363V115.568C94.9363 115.011 94.7917 114.577 94.5024 114.266C94.2131 113.952 93.8161 113.795 93.3113 113.795C92.9636 113.795 92.6527 113.871 92.3788 114.022C92.108 114.172 91.8941 114.393 91.7371 114.682C91.5802 114.971 91.5017 115.322 91.5017 115.734ZM104.738 120H101.821V110.545H104.868C105.785 110.545 106.569 110.735 107.222 111.113C107.874 111.489 108.375 112.029 108.722 112.734C109.07 113.435 109.244 114.276 109.244 115.254C109.244 116.239 109.069 117.087 108.718 117.798C108.367 118.506 107.856 119.051 107.185 119.432C106.514 119.811 105.699 120 104.738 120ZM102.966 118.984H104.664C105.446 118.984 106.094 118.834 106.608 118.532C107.122 118.23 107.505 117.801 107.757 117.244C108.01 116.687 108.136 116.024 108.136 115.254C108.136 114.491 108.011 113.834 107.762 113.283C107.513 112.729 107.14 112.304 106.645 112.009C106.149 111.71 105.532 111.561 104.794 111.561H102.966V118.984ZM111.017 120V112.909H112.106V120H111.017ZM111.571 111.727C111.358 111.727 111.175 111.655 111.021 111.51C110.871 111.366 110.795 111.192 110.795 110.989C110.795 110.786 110.871 110.612 111.021 110.467C111.175 110.322 111.358 110.25 111.571 110.25C111.783 110.25 111.965 110.322 112.115 110.467C112.269 110.612 112.346 110.786 112.346 110.989C112.346 111.192 112.269 111.366 112.115 111.51C111.965 111.655 111.783 111.727 111.571 111.727ZM119.124 114.497L118.146 114.774C118.084 114.611 117.993 114.453 117.873 114.299C117.756 114.142 117.596 114.012 117.393 113.911C117.19 113.809 116.93 113.759 116.613 113.759C116.179 113.759 115.817 113.859 115.528 114.059C115.242 114.256 115.099 114.506 115.099 114.811C115.099 115.082 115.197 115.296 115.394 115.453C115.591 115.61 115.899 115.741 116.318 115.845L117.37 116.104C118.004 116.258 118.477 116.493 118.787 116.81C119.098 117.124 119.254 117.529 119.254 118.024C119.254 118.43 119.137 118.794 118.903 119.114C118.672 119.434 118.349 119.686 117.933 119.871C117.518 120.055 117.035 120.148 116.484 120.148C115.761 120.148 115.162 119.991 114.688 119.677C114.214 119.363 113.914 118.904 113.788 118.301L114.822 118.043C114.92 118.424 115.107 118.71 115.38 118.901C115.657 119.092 116.019 119.188 116.465 119.188C116.973 119.188 117.376 119.08 117.675 118.864C117.976 118.646 118.127 118.384 118.127 118.08C118.127 117.833 118.041 117.627 117.869 117.461C117.696 117.292 117.432 117.165 117.075 117.082L115.893 116.805C115.243 116.652 114.766 116.413 114.462 116.09C114.16 115.764 114.009 115.356 114.009 114.866C114.009 114.466 114.122 114.112 114.346 113.805C114.574 113.497 114.883 113.255 115.274 113.08C115.668 112.904 116.114 112.817 116.613 112.817C117.315 112.817 117.866 112.971 118.266 113.278C118.669 113.586 118.955 113.992 119.124 114.497ZM123.977 112.909V113.832H120.303V112.909H123.977ZM121.374 111.21H122.463V117.969C122.463 118.277 122.508 118.507 122.597 118.661C122.689 118.812 122.806 118.914 122.948 118.966C123.093 119.015 123.245 119.04 123.405 119.04C123.525 119.04 123.624 119.034 123.7 119.021C123.777 119.006 123.839 118.994 123.885 118.984L124.107 119.963C124.033 119.991 123.93 120.018 123.797 120.046C123.665 120.077 123.497 120.092 123.294 120.092C122.986 120.092 122.685 120.026 122.389 119.894C122.097 119.761 121.854 119.56 121.66 119.289C121.469 119.018 121.374 118.677 121.374 118.264V111.21ZM125.616 120V112.909H126.669V113.98H126.743C126.872 113.629 127.106 113.345 127.444 113.126C127.783 112.908 128.165 112.798 128.589 112.798C128.669 112.798 128.769 112.8 128.889 112.803C129.009 112.806 129.1 112.811 129.162 112.817V113.925C129.125 113.915 129.04 113.902 128.908 113.883C128.779 113.862 128.642 113.851 128.497 113.851C128.152 113.851 127.845 113.923 127.574 114.068C127.306 114.209 127.094 114.406 126.937 114.659C126.783 114.908 126.706 115.193 126.706 115.513V120H125.616ZM130.453 120V112.909H131.543V120H130.453ZM131.007 111.727C130.795 111.727 130.612 111.655 130.458 111.51C130.307 111.366 130.232 111.192 130.232 110.989C130.232 110.786 130.307 110.612 130.458 110.467C130.612 110.322 130.795 110.25 131.007 110.25C131.22 110.25 131.401 110.322 131.552 110.467C131.706 110.612 131.783 110.786 131.783 110.989C131.783 111.192 131.706 111.366 131.552 111.51C131.401 111.655 131.22 111.727 131.007 111.727ZM133.686 120V110.545H134.775V114.036H134.868C134.948 113.912 135.059 113.755 135.2 113.565C135.345 113.371 135.551 113.198 135.819 113.048C136.09 112.894 136.456 112.817 136.917 112.817C137.515 112.817 138.041 112.966 138.496 113.265C138.952 113.563 139.307 113.986 139.563 114.534C139.818 115.082 139.946 115.728 139.946 116.473C139.946 117.224 139.818 117.875 139.563 118.426C139.307 118.974 138.953 119.398 138.501 119.7C138.048 119.998 137.527 120.148 136.936 120.148C136.48 120.148 136.116 120.072 135.842 119.922C135.568 119.768 135.357 119.594 135.209 119.4C135.062 119.203 134.948 119.04 134.868 118.911H134.738V120H133.686ZM134.757 116.455C134.757 116.99 134.835 117.462 134.992 117.872C135.149 118.278 135.379 118.597 135.68 118.827C135.982 119.055 136.351 119.169 136.788 119.169C137.244 119.169 137.624 119.049 137.928 118.809C138.236 118.566 138.467 118.24 138.621 117.83C138.778 117.418 138.856 116.959 138.856 116.455C138.856 115.956 138.779 115.507 138.626 115.107C138.475 114.703 138.245 114.385 137.938 114.151C137.633 113.914 137.25 113.795 136.788 113.795C136.345 113.795 135.973 113.908 135.671 114.132C135.369 114.354 135.142 114.665 134.988 115.065C134.834 115.462 134.757 115.925 134.757 116.455ZM146.081 117.101V112.909H147.171V120H146.081V118.8H146.007C145.841 119.16 145.583 119.466 145.232 119.718C144.881 119.968 144.438 120.092 143.902 120.092C143.459 120.092 143.065 119.995 142.72 119.801C142.376 119.605 142.105 119.309 141.908 118.915C141.711 118.518 141.612 118.018 141.612 117.415V112.909H142.702V117.341C142.702 117.858 142.847 118.27 143.136 118.578C143.428 118.886 143.801 119.04 144.253 119.04C144.524 119.04 144.799 118.971 145.079 118.832C145.363 118.694 145.599 118.481 145.79 118.195C145.984 117.909 146.081 117.544 146.081 117.101ZM152.25 112.909V113.832H148.575V112.909H152.25ZM149.646 111.21H150.736V117.969C150.736 118.277 150.78 118.507 150.87 118.661C150.962 118.812 151.079 118.914 151.22 118.966C151.365 119.015 151.517 119.04 151.677 119.04C151.797 119.04 151.896 119.034 151.973 119.021C152.05 119.006 152.111 118.994 152.158 118.984L152.379 119.963C152.305 119.991 152.202 120.018 152.07 120.046C151.938 120.077 151.77 120.092 151.567 120.092C151.259 120.092 150.957 120.026 150.662 119.894C150.369 119.761 150.126 119.56 149.932 119.289C149.742 119.018 149.646 118.677 149.646 118.264V111.21ZM153.889 120V112.909H154.978V120H153.889ZM154.443 111.727C154.23 111.727 154.047 111.655 153.893 111.51C153.743 111.366 153.667 111.192 153.667 110.989C153.667 110.786 153.743 110.612 153.893 110.467C154.047 110.322 154.23 110.25 154.443 110.25C154.655 110.25 154.837 110.322 154.987 110.467C155.141 110.612 155.218 110.786 155.218 110.989C155.218 111.192 155.141 111.366 154.987 111.51C154.837 111.655 154.655 111.727 154.443 111.727ZM159.854 120.148C159.214 120.148 158.653 119.995 158.169 119.691C157.689 119.386 157.314 118.96 157.043 118.412C156.775 117.864 156.641 117.224 156.641 116.491C156.641 115.753 156.775 115.108 157.043 114.557C157.314 114.006 157.689 113.578 158.169 113.274C158.653 112.969 159.214 112.817 159.854 112.817C160.495 112.817 161.055 112.969 161.535 113.274C162.018 113.578 162.393 114.006 162.661 114.557C162.932 115.108 163.067 115.753 163.067 116.491C163.067 117.224 162.932 117.864 162.661 118.412C162.393 118.96 162.018 119.386 161.535 119.691C161.055 119.995 160.495 120.148 159.854 120.148ZM159.854 119.169C160.341 119.169 160.741 119.044 161.055 118.795C161.369 118.546 161.601 118.218 161.752 117.812C161.903 117.406 161.978 116.965 161.978 116.491C161.978 116.018 161.903 115.576 161.752 115.167C161.601 114.757 161.369 114.426 161.055 114.174C160.741 113.922 160.341 113.795 159.854 113.795C159.368 113.795 158.968 113.922 158.654 114.174C158.34 114.426 158.108 114.757 157.957 115.167C157.806 115.576 157.731 116.018 157.731 116.491C157.731 116.965 157.806 117.406 157.957 117.812C158.108 118.218 158.34 118.546 158.654 118.795C158.968 119.044 159.368 119.169 159.854 119.169ZM165.82 115.734V120H164.731V112.909H165.783V114.017H165.875C166.042 113.657 166.294 113.368 166.633 113.149C166.971 112.928 167.408 112.817 167.944 112.817C168.424 112.817 168.844 112.915 169.204 113.112C169.564 113.306 169.844 113.602 170.044 113.999C170.244 114.393 170.344 114.891 170.344 115.494V120H169.255V115.568C169.255 115.011 169.11 114.577 168.821 114.266C168.531 113.952 168.134 113.795 167.63 113.795C167.282 113.795 166.971 113.871 166.697 114.022C166.426 114.172 166.212 114.393 166.055 114.682C165.899 114.971 165.82 115.322 165.82 115.734Z" fill="white"/>
</g>
<defs>
<filter id="filter0_d_93_282" x="8.48926" y="38.9678" width="108.01" height="76.5332" filterUnits="userSpaceOnUse" color-interpolation-filters="sRGB">
<feFlood flood-opacity="0" result="BackgroundImageFix"/>
<feColorMatrix in="SourceAlpha" type="matrix" values="0 0 0 0 0 0 0 0 0 0 0 0 0 0 0 0 0 0 127 0" result="hardAlpha"/>
<feOffset dx="1"/>
<feComposite in2="hardAlpha" operator="out"/>
<feColorMatrix type="matrix" values="0 0 0 0 1 0 0 0 0 1 0 0 0 0 1 0 0 0 1 0"/>
<feBlend mode="normal" in2="BackgroundImageFix" result="effect1_dropShadow_93_282"/>
<feBlend mode="normal" in="SourceGraphic" in2="effect1_dropShadow_93_282" result="shape"/>
</filter>
<filter id="filter1_d_93_282" x="4.33301" y="85.2832" width="112.167" height="79.5352" filterUnits="userSpaceOnUse" color-interpolation-filters="sRGB">
<feFlood flood-opacity="0" result="BackgroundImageFix"/>
<feColorMatrix in="SourceAlpha" type="matrix" values="0 0 0 0 0 0 0 0 0 0 0 0 0 0 0 0 0 0 127 0" result="hardAlpha"/>
<feOffset dx="1"/>
<feComposite in2="hardAlpha" operator="out"/>
<feColorMatrix type="matrix" values="0 0 0 0 1 0 0 0 0 1 0 0 0 0 1 0 0 0 1 0"/>
<feBlend mode="normal" in2="BackgroundImageFix" result="effect1_dropShadow_93_282"/>
<feBlend mode="normal" in="SourceGraphic" in2="effect1_dropShadow_93_282" result="shape"/>
</filter>
<filter id="filter2_d_93_282" x="15.8442" y="115.501" width="114.777" height="111.166" filterUnits="userSpaceOnUse" color-interpolation-filters="sRGB">
<feFlood flood-opacity="0" result="BackgroundImageFix"/>
<feColorMatrix in="SourceAlpha" type="matrix" values="0 0 0 0 0 0 0 0 0 0 0 0 0 0 0 0 0 0 127 0" result="hardAlpha"/>
<feOffset dx="1"/>
<feComposite in2="hardAlpha" operator="out"/>
<feColorMatrix type="matrix" values="0 0 0 0 1 0 0 0 0 1 0 0 0 0 1 0 0 0 1 0"/>
<feBlend mode="normal" in2="BackgroundImageFix" result="effect1_dropShadow_93_282"/>
<feBlend mode="normal" in="SourceGraphic" in2="effect1_dropShadow_93_282" result="shape"/>
</filter>
<filter id="filter3_d_93_282" x="115.5" y="115.5" width="110.733" height="110.278" filterUnits="userSpaceOnUse" color-interpolation-filters="sRGB">
<feFlood flood-opacity="0" result="BackgroundImageFix"/>
<feColorMatrix in="SourceAlpha" type="matrix" values="0 0 0 0 0 0 0 0 0 0 0 0 0 0 0 0 0 0 127 0" result="hardAlpha"/>
<feOffset dx="1"/>
<feComposite in2="hardAlpha" operator="out"/>
<feColorMatrix type="matrix" values="0 0 0 0 1 0 0 0 0 1 0 0 0 0 1 0 0 0 1 0"/>
<feBlend mode="normal" in2="BackgroundImageFix" result="effect1_dropShadow_93_282"/>
<feBlend mode="normal" in="SourceGraphic" in2="effect1_dropShadow_93_282" result="shape"/>
</filter>
<filter id="filter4_d_93_282" x="115.501" y="6.4375" width="112.167" height="126.961" filterUnits="userSpaceOnUse" color-interpolation-filters="sRGB">
<feFlood flood-opacity="0" result="BackgroundImageFix"/>
<feColorMatrix in="SourceAlpha" type="matrix" values="0 0 0 0 0 0 0 0 0 0 0 0 0 0 0 0 0 0 127 0" result="hardAlpha"/>
<feOffset dx="1"/>
<feComposite in2="hardAlpha" operator="out"/>
<feColorMatrix type="matrix" values="0 0 0 0 1 0 0 0 0 1 0 0 0 0 1 0 0 0 1 0"/>
<feBlend mode="normal" in2="BackgroundImageFix" result="effect1_dropShadow_93_282"/>
<feBlend mode="normal" in="SourceGraphic" in2="effect1_dropShadow_93_282" result="shape"/>
</filter>
<clipPath id="clip0_93_282">
<rect width="230" height="230" fill="white" transform="translate(0.5 0.5)"/>
</clipPath>
</defs>
</svg>
